<?xml version="1.0" encoding="UTF-8" standalone="no"?>
<!-- Created with Inkscape (http://www.inkscape.org/) -->

<svg
   width="430.6651"
   height="425.22052"
   viewBox="0 0 430.6651 425.22052"
   version="1.1"
   id="svg1"
   xml:space="preserve"
   inkscape:version="1.3.1 (91b66b0783, 2023-11-16)"
   sodipodi:docname="covtrim.svg"
   xmlns:inkscape="http://www.inkscape.org/namespaces/inkscape"
   xmlns:sodipodi="http://sodipodi.sourceforge.net/DTD/sodipodi-0.dtd"
   xmlns="http://www.w3.org/2000/svg"
   xmlns:svg="http://www.w3.org/2000/svg"><sodipodi:namedview
     id="namedview1"
     pagecolor="#ffffff"
     bordercolor="#111111"
     borderopacity="1"
     inkscape:showpageshadow="0"
     inkscape:pageopacity="0"
     inkscape:pagecheckerboard="1"
     inkscape:deskcolor="#d1d1d1"
     inkscape:document-units="px"
     inkscape:zoom="1.158716"
     inkscape:cx="137.65237"
     inkscape:cy="192.0229"
     inkscape:window-width="1920"
     inkscape:window-height="1017"
     inkscape:window-x="1912"
     inkscape:window-y="-8"
     inkscape:window-maximized="1"
     inkscape:current-layer="layer1" /><defs
     id="defs1"><clipPath
       clipPathUnits="userSpaceOnUse"
       id="clipPath41"><path
         id="path42"
         style="fill:#ff0000;fill-opacity:1;fill-rule:nonzero;stroke:none"
         d="M 44.771484,41.554688 V 466.77539 H 475.4375 V 41.554688 Z M 152.24414,251.72852 h 7.74609 c 4.82718,-0.0131 9.65382,-0.003 14.48047,0.0644 5.46076,0.0764 10.92283,0.12286 16.38282,0.24414 4.77499,0.143 9.54855,0.34182 14.32031,0.56836 5.22947,0.25786 10.45837,0.50697 15.68945,0.73047 5.46522,0.22012 10.93363,0.32965 16.40234,0.41015 4.60421,0.0634 9.2099,0.0811 13.81446,0.0977 3.54283,0.0115 7.08605,0.0146 10.6289,0.0176 2.50587,0.002 5.0118,0.002 7.51758,0.002 3.159,3.4e-4 6.31764,0.002 9.47656,0.002 2.67095,0.0241 5.34088,-0.0802 8.00977,-0.16992 1.96618,-0.107 3.93113,-0.21823 5.89844,-0.30273 1.1994,-0.0537 2.4009,-0.0597 3.59765,-0.1543 1.29441,-0.10855 2.59076,-0.17225 3.88868,-0.21875 1.53947,0.006 3.07844,0.10159 4.61718,0.14649 2.28796,0.0607 4.57626,0.15158 6.86133,0.2832 2.89164,0.15022 5.77689,0.37415 8.66602,0.56445 3.61436,0.20126 7.22412,0.47127 10.83789,0.6836 3.20305,0.1983 6.41301,0.25994 9.62109,0.30664 3.69738,0.0865 7.39421,0.19153 11.0918,0.26953 2.24413,0.0442 4.48783,0.0646 6.73047,0.15234 0.81673,-0.40859 1.68758,-0.66479 2.5957,-0.66211 1.08599,0.003 2.19702,0.34536 3.26172,0.97461 10.12172,1.09698 12.11637,9.28748 6.32812,13.13281 0.008,0.0358 0.0157,0.0716 0.0234,0.10743 0.50189,2.25892 1.03714,4.5102 1.48242,6.78125 0.17146,0.84752 0.23971,1.71082 0.37305,2.56445 3.05074,0.56525 4.87646,-0.12142 2.59961,-4.82813 -0.0345,-0.0713 -0.0732,-0.14164 -0.10352,-0.21484 -0.009,-0.0224 -0.013,-0.0338 -0.0117,-0.0371 0.009,-0.023 0.25051,0.37543 0.34375,0.51758 0.33731,0.51429 0.66429,1.03418 0.99804,1.55078 0.5756,0.88729 1.17227,1.76268 1.78516,2.625 0.63389,0.8781 1.30374,1.72865 1.94726,2.59961 0.39131,0.55294 0.78042,1.10816 1.17579,1.6582 1.30153,1.81074 2.12988,3.54534 2.58593,5.15235 2.69353,1.8688 3.51237,5.40403 1.54688,8.82617 0.36384,-0.062 0.71402,-0.10135 1.04492,-0.11133 5.16202,-0.15568 6.19652,5.67195 -0.0879,7.71289 -0.21919,0.0712 -0.44235,0.14979 -0.66406,0.21289 -0.0133,0.004 0.0249,-0.0125 0.0371,-0.0195 -0.39022,0.15201 -0.78672,0.28069 -1.18164,0.41797 -0.52829,0.21926 -1.05922,0.43455 -1.58399,0.66211 -0.8528,0.36784 -1.7058,0.734 -2.58789,1.02734 -0.87969,0.30061 -1.74542,0.64559 -2.62891,0.93555 -1.04713,0.35451 -2.09447,0.71126 -3.15625,1.01953 -0.65914,0.1941 -1.32385,0.37032 -1.97265,0.59766 -0.42545,0.1093 -0.83085,0.30595 -1.25195,0.43164 -0.0274,0.009 -0.0547,0.0183 -0.082,0.0273 -0.0336,0.10756 -0.0598,0.21735 -0.0957,0.32422 -0.42431,1.13823 -0.80819,2.30741 -1.40234,3.37305 -0.19304,0.34623 -0.41278,0.67716 -0.61914,1.01562 -0.60589,0.64085 -1.13088,1.36948 -1.81836,1.92188 -2.31248,1.85803 -5.3514,2.21674 -8.17969,2.52734 -4.19414,0.37007 -8.40182,0.59209 -12.60742,0.78516 -5.21251,0.1902 -10.42851,0.3104 -15.64453,0.3164 -3.60948,-0.0229 -7.21986,-0.14367 -10.82422,-0.33594 -2.95652,-0.17058 -5.90622,-0.44491 -8.86133,-0.63671 -3.5682,-0.25052 -7.13527,-0.49001 -10.70117,-0.77149 -2.97059,-0.25554 -5.95014,-0.36982 -8.92969,-0.44922 -2.98489,-0.0676 -5.96956,-0.0916 -8.95508,-0.10937 -2.4774,-0.0557 -4.95453,-0.15761 -7.43164,-0.22461 -2.55029,-0.0476 -5.09483,-0.22689 -7.64062,-0.37305 -2.87357,-0.13471 -5.74735,-0.28071 -8.6211,-0.41211 -2.0433,-0.096 -4.08764,-0.15134 -6.13281,-0.18554 -1.89583,-0.0152 -3.7885,-0.13689 -5.67578,-0.31055 -1.59173,-0.11017 -3.17709,-0.29805 -4.76758,-0.42188 -2.16538,-0.11076 -4.32093,-0.35139 -6.48242,-0.51562 -1.95926,-0.15274 -3.92248,-0.21736 -5.88672,-0.25586 -2.55327,-0.0196 -5.10687,-0.0968 -7.65625,-0.23828 -3.01984,-0.20055 -6.04518,-0.26492 -9.07031,-0.32422 -3.24117,-0.0589 -6.48307,-0.0799 -9.72461,-0.0957 -3.11372,-0.0144 -6.22806,-0.0176 -9.3418,-0.0195 -4.03461,-0.0684 -8.06986,-0.12159 -12.10351,-0.23438 -3.40441,-0.1134 -6.80923,-0.2113 -10.21485,-0.2793 -2.55147,-0.0879 -5.10062,-0.20591 -7.65234,-0.28711 -0.73228,-0.0388 -1.46319,-0.1033 -2.19531,-0.14843 -2.63874,10.01741 -13.24293,9.29668 -14.51368,-1.43164 -0.61807,-0.0512 -1.23595,-0.1033 -1.85351,-0.15821 -2.01358,-0.14632 -4.00514,-0.35938 -5.9668,-0.84375 -2.09364,-0.58439 -3.88753,-1.78223 -5.70117,-2.92578 -0.91052,-0.59572 -1.81292,-1.20591 -2.71875,-1.80859 -1.10705,-0.74244 -2.15603,-1.52847 -3.05859,-2.52344 -0.30391,-0.335 -0.55213,-0.71783 -0.82813,-1.07617 -1.14219,-1.63335 -1.87436,-3.50171 -2.1582,-5.47461 -0.0697,-0.48435 -0.0738,-0.97695 -0.11133,-1.46485 0.0319,-2.10521 0.48018,-4.16922 1.38086,-6.07617 0.45282,-0.95872 0.8006,-1.48158 1.32617,-2.33007 1.2024,-1.94453 2.80696,-3.57639 4.33008,-5.26368 1.25772,-1.31846 2.42567,-2.71927 3.64062,-4.07617 0.63829,-0.71775 1.24422,-1.46613 1.77735,-2.26562 1.33096,-1.92836 2.05451,-2.89352 2.74609,-3.17579 0.8502,-2.03083 2.4064,-3.74128 4.45899,-4.66015 0.66633,-0.29831 1.39108,-0.44773 2.08593,-0.67188 0.24356,-0.0286 0.48734,-0.0534 0.73047,-0.0859 v -0.002 c -10.30505,-2.74204 -8.79699,-14.67968 4.57422,-14.67968 z m 191.61719,18.61132 c 1.66846,1.3745 2.61531,2.99684 3.54883,4.90821 0.26268,0.54734 0.53539,1.11158 0.85156,1.57031 0.91597,1.13216 1.96915,2.14715 2.95117,3.2207 1.63173,1.66076 3.26508,3.32168 4.81641,5.0586 0.82625,0.94592 1.62706,1.91952 2.38867,2.91992 -0.11504,-1.14985 -0.2301,-2.29972 -0.32617,-3.45117 -0.20699,-1.97729 -0.45715,-3.95085 -0.85352,-5.90039 -0.41446,-2.16621 -0.95051,-4.30781 -1.41797,-6.4629 -0.1142,-0.53048 -0.23847,-1.0586 -0.35742,-1.58789 -1.33073,-0.0231 -2.6611,-0.0572 -3.99219,-0.0879 -2.53672,-0.0536 -5.073,-0.12253 -7.60937,-0.1875 z m -29.48047,11.95118 c -3.29259,0.72087 -6.64597,1.1452 -9.99414,1.49609 -8.28148,0.72185 -16.60207,0.80631 -24.9082,0.97851 -5.65069,0.12046 -11.30088,0.25343 -16.95118,0.38086 0.98217,0.18358 1.96604,0.35688 2.94727,0.54493 1.26213,0.2562 2.51916,0.53727 3.7793,0.80273 4.24078,0.005 8.48166,0.0115 12.72265,0.0137 5.36681,-0.0862 10.72872,0.0888 16.08594,0.39063 5.05167,0.36404 10.09781,0.77846 15.1543,1.07422 1.57688,0.0879 3.15652,0.10501 4.73437,0.16992 -1.32419,-1.61625 -2.64805,-3.69308 -3.57031,-5.85156 z m 6.22656,4.19726 c -0.1797,-0.0109 -0.31309,0.0768 -0.125,0.18164 0.14455,0.0806 0.34236,0.1587 0.53125,0.23633 -0.003,-0.002 -0.005,-0.004 -0.008,-0.006 0.007,-0.29035 -0.21873,-0.40121 -0.39844,-0.41211 z m 0.75196,0.7168 c 0.16933,0.43341 0.2318,0.7167 0.3457,1.07226 0.28129,0.009 0.56244,0.0208 0.84375,0.0293 -0.38054,-0.38449 -0.77296,-0.75663 -1.18945,-1.10156 z" /></clipPath></defs><g
     inkscape:label="Layer 1"
     inkscape:groupmode="layer"
     id="layer1"
     transform="translate(-44.772411,-41.554867)"><path
       id="path1"
       style="fill:#181c27;stroke:none"
       d="m 257.16797,41.59375 c -4.40463,0.101684 -8.7527,0.408094 -12.98047,0.964844 -51.54188,6.787457 -97.07936,22.786891 -135.49609,59.521486 -18.204994,17.40781 -32.961229,39.02653 -43.693363,61.74414 -33.683958,71.3016 -25.080977,160.15564 24.208984,222.50781 45.735099,57.85523 122.676729,87.91185 195.496089,78.85156 27.00008,-3.35933 54.23909,-10.5611 78.37696,-23.38281 62.8851,-33.4037 104.71797,-96.12433 111.47265,-167.05469 C 480.56739,211.58737 455.6208,142.9658 408.91016,99.457031 377.92944,70.599967 338.31876,51.728348 296.66016,44.878906 284.11005,42.815445 270.3818,41.288698 257.16797,41.59375 Z m -0.72461,15.439453 c 5.01538,0.616991 7.53341,7.515208 1.02734,9.375 -6.3357,1.811133 -10.15182,-7.499 -3.31054,-9.220703 0.79942,-0.201188 1.56671,-0.242438 2.2832,-0.154297 z m 22.94726,0.519531 c 4.05134,0.83621 12.26436,6.003495 5.63672,10.607422 -7.01758,4.874852 -6.88543,-7.27298 -5.63672,-10.607422 z m 16.41407,2.996094 c 1.5845,-0.06473 3.58851,0.732227 4.83984,0.990234 v 23.246094 c -10.33232,-0.0069 -7.3097,-6.667493 -7.30664,-14.613281 8.3e-4,-2.147937 -0.99551,-7.824843 1.06641,-9.21875 0.39145,-0.264632 0.87222,-0.38272 1.40039,-0.404297 z m 12.14648,2.31836 7.97071,1.992187 c 0,12.672751 -0.51243,25.257126 -0.0274,37.859375 0.15454,4.01189 -1.58687,8.71823 -6.60547,6.81055 -6.29478,-2.39289 -2.4965,-8.30381 -2.07226,-12.789066 1.04439,-11.041493 0.73437,-22.777967 0.73437,-33.873046 z m -96.17578,0.769531 c 4.5364,0.391277 7.00562,7.919459 1.78906,10.02539 -5.82192,2.350351 -9.25673,-7.664183 -3.84375,-9.720703 0.71606,-0.27204 1.40663,-0.360585 2.05469,-0.304687 z m 11.91992,0.447265 c 3.57555,-0.79757 6.38445,5.645661 2.46289,6.835938 -3.83171,1.162993 -6.28749,-5.982823 -2.46289,-6.835938 z m 99.53321,3.431641 7.30468,1.992187 v 32.546878 c 0,2.83629 1.31298,9.37473 -2.69531,9.83789 -6.37059,0.73616 -5.27539,-6.32163 -5.27539,-10.50196 0,-11.323975 0.66602,-22.580859 0.66602,-33.874995 z m 15.93945,4.650391 c 1.5839,1.11994 4.17645,2.048732 5.29883,3.652343 1.77807,2.540441 1.34261,7.34889 1.34375,10.294922 0.003,7.599992 -0.83274,15.023919 -0.11328,22.583989 0.36191,3.80295 2.00515,13.20243 -3.21875,14.00585 -3.40136,0.52317 -5.33802,-2.2887 -5.17774,-5.37109 0.55198,-10.61571 0.53906,-21.228309 0.53906,-31.882811 0,-3.992879 -1.16204,-9.996321 1.32813,-13.283203 z m -173.86524,6.207031 c 2.12826,0.298572 3.9419,1.962638 3.1211,4.396484 -1.13581,3.367888 -5.47935,6.213362 -7.92578,8.658203 9.76664,1.059658 21.99945,8.174593 31.21679,11.955076 0.0836,-4.047794 0.2802,-17.208988 7.19922,-11.421872 3.53234,2.954465 0.76276,12.663362 0.19532,16.736332 -2.98076,21.392 -18.2571,31.1392 -37.94727,35.20117 5.74037,13.80617 9.45152,32.96333 -4.01172,44.05859 -6.89513,5.68243 -15.52188,7.38658 -23.88477,9.74219 5.14857,8.82267 8.94685,20.63771 4.89844,30.55273 -2.28438,5.59477 -6.31092,11.78575 -12.86914,8.63477 l 6.64258,-18.59766 c -5.77309,0.92838 -23.15573,-4.70906 -25.9043,-9.96289 9.01579,-2.14053 16.56802,3.89324 25.24024,4.65039 l -5.31446,-13.28515 c -11.39826,3.2043 -23.36693,5.29393 -25.61132,19.26171 -0.509178,3.16862 0.12453,6.14995 0.37304,9.29883 h 9.96289 l -1.53906,6.24219 -14.402342,0.40039 H 59.539062 l 0.664063,-7.30664 c 9.999809,0 22.963312,-2.16863 32.546875,0.66406 -0.474161,-11.04326 -1.148652,-23.7009 9.96289,-30.31836 5.5165,-3.28526 11.8426,-3.97096 17.93359,-5.54687 -8.60422,-16.33566 -11.63789,-37.10425 7.30664,-48.25391 4.2144,-2.48035 9.24658,-3.48011 13.94727,-4.63476 1.67939,-0.41251 4.9848,-0.47681 6.09961,-1.97461 1.72097,-2.31217 -3.0572,-9.65412 -3.81445,-12.22266 -2.48538,-8.43027 -2.50886,-18.33644 0.65625,-26.566405 2.75955,-7.175623 10.68037,-17.698814 18.3125,-20.183594 0.69332,-0.225724 1.43907,-0.277258 2.14843,-0.177734 z m 188.47852,1.097656 6.64063,3.322266 c 0,10.878523 -1.08742,22.406751 0.1914,33.208981 0.33826,2.85744 2.49522,9.33151 -1.00586,10.89063 -4.71647,2.10039 -7.04156,-2.36393 -7.14453,-6.24024 -0.25249,-9.50582 -0.0117,-19.05111 -0.0117,-28.560543 0,-4.052311 -0.81937,-9.032873 1.33008,-12.621094 z m -139.93164,0.166016 c 4.73645,0.606497 6.79555,8.875252 1.10156,11.017578 -7.2885,2.742281 -9.83451,-8.506104 -3.28125,-10.769531 0.77116,-0.26635 1.50305,-0.334691 2.17969,-0.248047 z m 42.95703,1.378906 c 9.88584,-0.749408 18.28843,4.823355 23.29688,13.068359 3.27482,5.391206 4.42625,11.733486 7.46484,17.269536 6.81297,12.41264 14.79095,24.39854 22.10937,36.53125 7.13341,11.82579 17.96498,25.14305 21.76172,38.52343 2.97857,10.49683 -5.93209,20.46486 -16.18164,21.11328 -10.62682,0.67237 -15.0024,-7.14075 -19.64453,-15.13476 -8.42152,-14.50251 -17.23288,-28.74981 -25.78516,-43.17383 -2.65343,-4.47528 -5.56646,-8.79347 -8.18359,-13.28516 -0.90047,-1.54536 -2.13687,-4.56945 -4.16601,-4.89257 -1.96986,-0.31367 -3.4611,2.91231 -4.32032,4.22851 -3.23843,4.96089 -6.05632,10.19849 -9.10351,15.27735 -6.73489,11.22491 -13.40399,22.50858 -19.89258,33.875 -3.30933,5.79704 -6.57162,13.76118 -11.33203,18.45507 -5.65603,5.57699 -18.19897,5.58733 -24.42578,1.04688 -13.43985,-9.80008 -3.89134,-23.61775 2.67968,-34.11524 12.68811,-20.26979 25.00357,-41.00913 36.87891,-61.76953 7.50428,-13.118908 11.60683,-25.71091 28.84375,-27.017575 z m -85.99609,4.029297 c 1.32064,-0.04445 2.8571,0.472785 4.30078,0.978516 5.4688,1.915766 13.04026,4.056093 15.93945,9.388671 -7.59216,-0.177719 -16.59224,-4.484318 -23.24609,-7.970703 0.57995,-1.746007 1.68521,-2.352038 3.00586,-2.396484 z m 197.58203,3.060547 c 9.62784,5.066321 5.69964,12.452091 6.83203,21.919921 0.40349,3.37363 2.80113,9.77721 -1.55664,11.45117 -2.67193,1.02638 -5.77526,-0.73037 -6.36524,-3.49218 -0.5213,-2.4404 0.41367,-5.44812 0.42579,-7.95899 0.0308,-6.38759 -1.80748,-16.030126 0.66406,-21.919921 z m -209.22266,4.65039 c -5.21474,4.624366 -13.79166,20.985251 -6.64258,27.232421 l -0.66406,-3.32226 0.66406,-0.66407 20.58985,6.8711 7.96093,3.15429 5.32422,-6.03906 c -8.50439,-2.76728 -16.86651,-6.13255 -25.24023,-9.26562 -4.0759,-1.52506 -7.90098,-3.03501 -6.64258,-8.00391 l 34.53906,12.61914 1.99219,-7.9707 c -3.46295,0.12389 -6.13757,-1.26914 -9.29883,-2.52149 -6.75039,-2.67417 -19.77332,-4.69751 -22.58203,-12.089841 z m 99.10547,0.109375 c -0.91354,-0.03394 -1.84849,0.02852 -2.79687,0.199219 -11.87721,2.137559 -10.19392,12.101847 -15.02735,20.281247 -11.2307,19.00537 -23.58491,37.40108 -34.77929,56.45703 -2.83522,4.82632 -17.43412,22.09662 -5.98633,23.67969 6.4636,0.89384 13.0567,-15.55187 15.9414,-20.35937 7.74183,-12.90186 15.74082,-25.64059 23.51172,-38.52344 2.51769,-4.1739 5.56672,-12.94897 9.91406,-15.39063 1.3814,-0.77578 14.43258,0.62485 16.36133,1.23829 4.40568,1.40115 8.16158,11.00818 10.37305,14.8164 8.17016,14.06956 16.67272,28.01093 25.24023,41.84571 2.9495,4.76274 6.99874,18.17759 14.23047,16.39257 9.69179,-2.39217 -4.44146,-19.83855 -7.27343,-24.36328 -7.41431,-11.8457 -14.25572,-24.05242 -21.74024,-35.86719 -3.90826,-6.16937 -10.07727,-13.18587 -12.67969,-19.92578 -1.13594,-2.94189 0.0906,-6.21006 -1.13476,-9.29882 -2.36549,-5.962475 -7.75956,-10.944034 -14.1543,-11.181646 z m 127.6875,7.289066 c 4.66933,0.39909 6.82454,8.44091 1.65625,10.78906 -6.33368,2.87771 -8.30847,-8.69914 -3.79883,-10.45313 0.75565,-0.2939 1.47553,-0.39295 2.14258,-0.33593 z m -59.57031,15.15625 c 4.95021,0.4657 5.93096,10.3726 0.79101,12.125 -6.5253,2.22466 -8.59903,-9.35788 -3.15039,-11.69532 0.86291,-0.37017 1.6522,-0.49621 2.35938,-0.42968 z m 70.56054,0.31836 c 7.7646,-0.91514 8.97577,11.14208 1.32813,12.15039 -8.35028,1.10093 -9.62246,-11.17282 -1.32813,-12.15039 z m -276.43164,0.56054 c 5.50484,0.9528 7.94371,9.68015 1.44336,11.48047 -7.60568,2.10646 -11.99314,-9.36016 -3.97265,-11.36914 0.89446,-0.22404 1.74295,-0.24744 2.52929,-0.11133 z m 31.3418,5.12696 c 0.0345,3.85979 1.50776,12.81945 6.04688,14.01953 4.47067,1.18199 12.26948,-2.66911 16.53515,-4.05664 v -1.32813 z m 230.54688,6.28906 c 6.57779,0.65951 7.00013,12.12262 -0.73243,12.63867 -8.63815,0.57647 -8.98016,-11.63343 -0.66406,-12.62109 0.49266,-0.0585 0.95796,-0.0616 1.39649,-0.0176 z m 31.19922,4.32226 c 5.87637,0.44347 8.52986,10.04118 1.93164,12.52735 -7.50878,2.82924 -12.16815,-9.28065 -4.62891,-12.10938 0.95351,-0.35775 1.85777,-0.48132 2.69727,-0.41797 z m -314.216802,7.58008 c 7.499652,-1.11107 9.916162,10.5602 1.990232,11.39844 -7.287981,0.77078 -9.916662,-10.22413 -1.990232,-11.39844 z m 296.896482,0.1875 c 7.79144,0.0985 7.86441,12.72235 0,12.57031 -7.72475,-0.14928 -7.84726,-12.66954 0,-12.57031 z m -55.18554,0.22852 c 2.47484,-0.17921 5.31079,1.18482 7.36328,1.94922 7.19818,2.68078 20.17949,5.52512 24.83593,12.11133 4.29123,6.0695 -4.56587,8.56146 -8.89453,7.11523 -3.90276,-1.30396 -7.19622,-3.85013 -11.29101,-4.58008 10.38873,10.63762 18.02559,25.23177 25.77734,37.85938 3.39633,5.53249 8.23896,10.98616 10.08789,17.26953 -2.22015,1.46885 -6.31948,5.03846 -9.17578,3.84179 -3.80614,-1.59454 -6.43415,-9.14605 -8.55469,-12.47656 -7.61015,-11.95247 -17.30528,-24.10247 -22.78515,-37.19531 -2.2136,4.14793 0.0351,9.87763 -2.66602,13.73633 -1.89085,2.70118 -8.17172,2.14425 -9.07812,-1.15625 -2.31996,-8.4479 0.41155,-19.23492 0.45312,-27.85742 0.0131,-2.71834 -1.00568,-8.04575 1.61524,-9.84375 0.70255,-0.48203 1.48753,-0.7137 2.3125,-0.77344 z m -191.66211,5.99414 c -5.48912,0.45034 -13.46955,4.1488 -16.83985,5.28711 v 1.32812 l 25.9043,9.29883 c -0.74681,-3.9636 -1.16531,-12.87275 -4.92774,-15.24805 -0.53843,-0.33996 -1.20074,-0.54527 -1.95703,-0.64257 -0.66174,-0.0851 -1.39552,-0.0878 -2.17968,-0.0234 z m 278.75976,8.86328 c 6.51752,-1.07529 7.41112,7.67336 1.29688,8.68359 -5.26034,0.86913 -6.40593,-7.84067 -1.29688,-8.68359 z M 88.775391,154.9375 c 5.863956,-0.89027 9.626768,8.50072 2.642578,9.40039 -6.196066,0.79817 -9.255523,-8.39643 -2.642578,-9.40039 z m 38.511719,0.91797 c -5.31972,5.9267 -6.47299,14.25443 -4.64844,21.91797 10.56314,-1.12046 23.12446,12.31163 30.55274,1.99218 l -29.88868,-11.29101 1.32813,-3.98438 31.88281,11.29102 1.99219,-7.30664 z m 286.25195,0.30469 c 5.52822,1.29774 6.54736,11.07614 0.0176,12.67968 -7.95347,1.95322 -10.88511,-10.88234 -2.6543,-12.66796 0.96494,-0.20935 1.84698,-0.19724 2.63672,-0.0117 z m -22.71094,2.65429 c 3.83583,0.90652 4.69442,7.83242 0.11915,8.75586 -5.45257,1.10051 -7.20295,-7.53978 -1.9375,-8.74219 0.66231,-0.15119 1.27044,-0.14299 1.81835,-0.0137 z m 41.74805,9.83594 c 4.78621,0.31661 9.78437,3.58273 10.20703,7.79492 h -7.30664 -4.64844 c -2.63545,-0.0182 -8.51469,-1.89478 -4.91015,-5.57812 1.23885,-1.26596 2.87168,-1.95004 4.63476,-2.16602 0.66118,-0.081 1.3397,-0.096 2.02344,-0.0508 z m -348.746092,0.86523 c 1.877465,0.0342 3.737806,0.34538 4.646484,0.97071 1.725212,1.18722 2.135611,4.41253 0.07617,5.46484 -2.061419,1.05332 -8.125264,1.1326 -10.201172,0.0937 -2.235201,-1.1182 -1.166534,-4.91129 0.728516,-5.8418 0.978095,-0.4802 2.872536,-0.72164 4.75,-0.6875 z m 174.306642,0.28711 20.88867,33.875 32.43359,53.79883 13.89649,23.24805 6.50586,11.29101 h -99.62891 -30.55273 l -15.94141,-0.66406 c 3.48196,-10.2257 10.32017,-19.2529 15.65625,-28.56054 10.71456,-18.68923 21.97516,-37.07764 32.64453,-55.79297 6.44675,-11.30832 13.40748,-29.50105 24.09766,-37.19532 z m 136.81445,5.46094 c 0.42518,-0.016 0.83597,0.0181 1.23047,0.0977 5.523,1.1133 7.84795,10.95775 1.42383,12.75 -8.45714,2.35942 -12.62708,-10.28263 -3.9707,-12.64258 0.45166,-0.12313 0.89122,-0.18913 1.3164,-0.20508 z m -270.98437,5.83008 3.98632,9.96289 11.95508,-3.32031 z m -43.734378,1.69922 c 3.800834,-0.10357 7.640007,0.37166 8.908203,1.45117 4.479173,3.81273 -0.738418,6.78757 -4.361328,6.8125 h -5.978516 -8.632812 c 0.04266,-2.00249 -0.05463,-4.64 1.386719,-6.24023 1.114286,-1.23719 4.8769,-1.91987 8.677734,-2.02344 z m 347.386718,0.10547 c 4.74596,0.21897 9.61321,0.85351 12.50781,0.85351 2.09428,0 5.18804,-0.53615 7.0293,0.68164 1.82639,1.20796 2.39523,3.99159 2.93359,5.95899 -4.37277,1.29257 -9.40815,0.66406 -13.94726,0.66406 h -9.29883 c -3.06901,0 -7.67223,0.8476 -10.5293,-0.40039 -2.38289,-1.0409 -2.59026,-4.66405 -0.47461,-6.12109 2.40887,-1.65899 7.0334,-1.85569 11.7793,-1.63672 z m -170.8125,8.82226 c -10.70567,20.11475 -23.00884,39.4734 -34.54492,59.11524 -5.01418,8.53733 -13.517,18.72919 -15.26953,28.56054 3.03789,0 11.89403,1.50578 13.92969,-1.06445 5.56235,-7.02303 -5.29105,-20.89836 9.31835,-22.18359 -0.005,7.43946 -5.1977,28.57658 8.63477,21.91992 -2.39298,-10.05099 -1.37792,-22.21679 -1.32812,-32.54688 0.018,-3.73574 -0.23792,-9.91089 1.53906,-13.24414 1.4923,-2.79921 4.32201,-2.68747 7.09375,-2.69726 v 49.8164 c 2.84319,0 7.78234,1.04662 8.48047,-2.69531 0.81706,-4.3792 -0.50977,-10.0395 -0.50977,-14.57422 0,-11.28048 0.26819,-22.5982 -0.01,-33.875 -0.13303,-5.43128 -1.70094,-12.66723 0.41016,-17.89453 1.30671,-3.23548 6.21644,-3.55384 7.28125,0 1.94582,6.49432 0.28906,15.77119 0.28906,22.54492 V 251.5 c 0,9.28153 -0.49993,18.6862 0.66407,27.89648 h 7.9707 v -49.15039 c 9.12476,0.72716 7.9707,7.14777 7.9707,14.61133 0,11.38381 -0.75291,23.32658 0.66406,34.53906 h 8.63477 c 0,-3.86706 -3.30605,-20.15393 2.0293,-20.9707 7.96824,-1.21984 5.7763,16.50426 6.60547,20.9707 l 13.94726,0.66407 -14.33203,-25.24024 -38.14062,-63.09961 z m -176.697265,6.10742 c 3.016792,-0.0154 5.584719,0.38245 6.644531,1.69336 1.991904,2.46393 0.129531,6.13028 -2.652344,6.66016 -5.909188,1.12554 -12.587924,-0.51172 -18.583984,-0.51172 l 0.664063,-6.64258 c 2.098597,0 6.535791,-0.75072 10.800781,-1.06445 1.066247,-0.0784 2.121356,-0.12962 3.126953,-0.13477 z m 336.105465,0.53711 c 12.40031,-0.14276 24.73939,0.66211 37.19532,0.66211 l 1.32812,6.64258 c -12.43063,0.25662 -24.76756,0 -37.19531,0 -2.91703,0 -11.49197,1.56849 -11.81836,-2.69336 -0.37543,-4.90216 7.18053,-4.57323 10.49023,-4.61133 z m -0.48242,14.36133 c 2.68564,-0.0145 5.42115,0.25 7.78906,0.25 h 33.21094 l 1.32813,7.30469 -32.54688,0.66406 -12.97461,-0.36328 -5.62304,7.00586 h 53.13671 l 0.66407,7.30664 h -42.50782 c -4.45782,0 -12.50836,1.55089 -15.27734,-2.65625 l -2.65625,11.95508 h 0.66406 c 2.81166,-3.69341 11.70157,-1.99219 15.93946,-1.99219 14.56473,0 30.06356,1.52681 44.50195,0 v 7.30664 h -35.86719 l -25.23828,-1.33008 c 0.8793,6.80889 3.36704,18.21011 10.02149,21.80079 3.89372,2.10097 10.89408,0.7832 15.21679,0.7832 11.77284,0 23.44355,0.66406 35.20313,0.66406 -2.4e-4,2.02777 0.68667,5.81105 -1.53907,6.90625 -3.40092,1.67349 -9.98846,0.40039 -13.73632,0.40039 -11.56779,0 -30.32863,3.00952 -40.51758,-3.31836 -19.85174,-12.32894 -16.20431,-51.22107 3.32226,-61.26562 2.16609,-1.11425 4.8007,-1.40742 7.48633,-1.42188 z m -240.16797,0.20508 c 10.16901,-0.27928 20.44387,7.56611 19.73243,18.64258 -0.83939,13.06759 -14.7174,27.47774 -21.03711,38.52344 -7.93387,13.86676 -18.72758,27.1836 -25.05274,41.84375 6.91746,1.64685 14.83144,0.66406 21.91797,0.66406 10.39837,0 20.78508,0.66406 31.21875,0.66406 h 26.56641 c 4.5912,2.8e-4 9.76804,-0.69342 13.94726,1.60742 11.8922,6.54731 8.26586,26.90863 -2.6543,32.375 -8.78525,4.39774 -21.75355,1.22071 -31.21874,1.22071 -22.48538,0 -45.33083,-0.8105 -67.74805,0.72461 -12.93148,0.88546 -27.40043,1.99037 -34.60352,-11.35157 -7.436325,-13.774 0.96146,-26.56306 8.47852,-37.85937 12.1109,-18.19965 22.83879,-37.55622 33.81445,-56.45703 3.48907,-6.00841 7.17407,-11.90068 10.625,-17.9336 1.853,-3.23935 3.11991,-7.26574 6.28906,-9.49609 2.95535,-2.07983 6.33498,-3.07488 9.72461,-3.16797 z m -106.726559,0.0449 h 17.269531 v 7.30469 H 62.197266 l 0.68164,-6.24023 z M 338.875,213.26758 c 3.35707,0.19068 6.68741,1.19609 9.56641,3.11719 7.65891,5.11059 13.04781,19.37105 17.92578,27.14453 14.23615,22.68667 28.59321,45.56558 42.50195,68.41211 4.73742,7.78165 5.82667,18.47662 1.12695,26.56836 -4.27808,7.36586 -13.89292,12.07914 -22.34179,11.87109 -25.23763,-0.62151 -50.39575,-1.9082 -75.71875,-1.9082 -9.94502,0 -25.48331,2.91728 -34.53711,-1.61133 -11.87536,-5.93998 -14.96492,-25.88338 -1.99414,-32.36914 3.95415,-1.97724 8.99305,-1.22266 13.28515,-1.22266 h 27.23243 c 16.29321,0 33.75265,1.65378 49.81445,-1.32812 -1.59608,-5.00904 -5.21374,-9.37286 -7.76563,-13.94727 -6.13345,-10.99456 -12.8172,-21.87106 -19.5,-32.54687 -4.53929,-7.25174 -8.98783,-14.57793 -13.38281,-21.91797 -2.22136,-3.70994 -5.44092,-8.18945 -5.76562,-12.61914 -0.83883,-11.44393 9.48158,-18.21464 19.55273,-17.64258 z m -233.81836,4.5293 c 8.05018,-0.43646 22.35995,4.02147 22.89648,11.11914 -8.66671,-0.0727 -17.95658,-5.37496 -25.90429,-8.63477 v -1.99219 c 0.8362,-0.26876 1.85778,-0.42989 3.00781,-0.49218 z m 68.06055,7.79882 c -2.82502,9.80626 -10.12469,19.14087 -15.26758,27.89649 -9.49165,16.15915 -18.732,32.56139 -28.61133,48.48633 -6.11872,9.86306 -19.64689,18.09675 -11.25195,31.20703 5.65047,8.82431 18.38806,3.36004 26.57031,2.28515 21.63438,-2.842 45.25348,-0.28125 67.08594,-0.28125 5.67681,0 25.61914,3.2792 25.61914,-5.31054 0,-3.81227 -3.24838,-4.60693 -6.35742,-4.65039 -7.3031,-0.10206 -14.61612,-0.004 -21.91992,-0.004 H 165.8125 c -4.94165,0 -13.41172,1.51442 -17.75,-1.33594 -2.48976,-1.63584 -9.01375,-12.43743 -10.15039,-15.26758 -0.95463,-2.37687 1.21303,-4.78817 2.43945,-6.64257 3.01404,-4.55754 5.77919,-9.26475 8.58985,-13.94922 l 23.51171,-39.1875 c 3.70999,-6.1709 9.49185,-12.922 11.29297,-19.92578 z m 165.02929,0.33789 c -3.12861,0.12676 -6.78323,2.63386 -5.83398,5.64258 2.58389,8.18987 9.62053,15.94615 14.02734,23.24414 4.131,6.84124 8.39514,13.65851 12.3711,20.58985 6.42533,11.20137 15.21591,22.0565 20.30859,33.875 -6.04584,2.07844 -7.2364,10.26832 -7.96875,15.93945 -12.15151,0.25082 -24.30445,0.66602 -36.53125,0.66601 -7.8504,0 -16.11358,0.72877 -23.91211,-0.1914 -8.25262,-0.97374 -18.94003,-1.81446 -27.16015,-0.375 -3.98511,0.69785 -3.13703,6.77769 -0.58399,8.70703 4.96233,3.75004 19.01208,1.1582 25.08789,1.1582 21.58456,0 44.28769,-2.03456 65.75586,0.11328 9.24483,0.92495 20.12326,6.59164 26.21289,-4.09961 6.86607,-12.05425 -7.31935,-18.81177 -12.62109,-27.23242 -11.3346,-18.00253 -21.4988,-36.87776 -32.45508,-55.1289 -3.78835,-6.31072 -8.04589,-17.72524 -13.93359,-22.17188 -0.73615,-0.55596 -1.72078,-0.77858 -2.76368,-0.73633 z m 66.11329,3.64649 0.66406,0.66406 z m -327.615239,12.5957 c 2.046891,-0.043 4.09401,-0.0389 6.142578,0.0508 5.55686,0.24336 11.01589,0.63867 16.605469,0.63867 h 9.298832 c 3.00776,-1.8e-4 7.71473,-1.26731 10.47461,-0.0605 2.23991,0.97926 2.97412,5.07431 0.98632,6.68359 -2.86039,2.31576 -11.86923,0.6836 -15.44726,0.6836 H 71.496094 c -3.195883,0 -9.614148,1.21681 -12.330078,-0.6836 -2.04831,-1.43326 -1.112614,-4.55159 -0.955078,-6.62305 6.155004,0 12.292921,-0.56046 18.433593,-0.68945 z m 339.535159,14.21094 c 3.01711,0.12478 6.05816,0.42773 8.66992,0.42773 h 15.27734 21.91797 c -2e-4,1.87222 0.60845,5.29809 -1.06445,6.62305 -2.25599,1.78676 -8.15067,0.68164 -10.89063,0.68164 -9.76559,0 -19.49794,-0.66406 -29.22461,-0.66406 -3.49027,0 -12.06309,1.5639 -14.875,-0.68164 -2.09433,-1.67255 -0.52696,-5.13014 1.66211,-5.74805 2.5165,-0.71029 5.51017,-0.76346 8.52735,-0.63867 z m -347.363284,0.4043 c 3.765306,-0.0477 7.539363,0.0215 11.314453,0.0215 5.356788,0 10.616492,0.52387 15.939453,0.6543 2.875115,0.0705 5.758828,0.0117 8.634768,0.0117 2.95828,0 7.85881,-0.91978 10.47656,0.68164 1.9779,1.20999 2.75467,4.49571 0.60352,5.9414 -3.03602,2.04027 -10.18705,0.68164 -13.73633,0.68164 H 71.496094 c -3.363889,0 -9.28879,1.14415 -12.332032,-0.40039 -2.222887,-1.12818 -1.615829,-4.85794 -1.617187,-6.90429 v -0.002 c 3.746348,-0.47346 7.504225,-0.63786 11.269531,-0.68554 z m 29.982422,14.22851 c 2.625332,-0.10196 5.214132,-0.002 7.162112,0.80664 2.54413,1.05615 3.61246,5.06304 1.11328,6.78711 -2.48494,1.71424 -7.464726,0.7832 -10.339845,0.7832 H 71.496094 c -2.93946,0 -8.481664,1.05239 -11.003906,-0.68359 -2.149259,-1.47927 -1.615698,-5.03783 -1.617188,-7.28711 h 19.261719 13.285156 c 2.090841,0 4.751641,-0.30428 7.376953,-0.40625 z m 331.365232,14.35352 h 11.29102 c 5.54956,0.002 11.03565,0.66601 16.60547,0.66601 -0.0846,1.96522 0.0305,5.28937 -1.71875,6.62305 -2.00987,1.53237 -6.5203,0.68164 -8.90821,0.68164 -7.63305,0 -15.67543,0.71351 -23.24804,-0.28125 -2.15922,-0.28364 -5.84021,0.1453 -7.47461,-1.53906 -6.03318,-6.21766 11.22514,-6.15039 13.45312,-6.15039 z m -346.662107,0.1289 c 4.854012,0.0273 9.676604,0.41148 13.144531,1.41211 3.824646,1.10357 2.622278,5.75197 -0.58789,6.71485 -6.873329,2.06155 -18.09382,0.94635 -25.226563,0.26757 -2.229715,-0.21218 -5.758208,0.006 -7.769531,-0.95312 -8.230476,-3.92614 4.912777,-6.45612 7.105469,-6.71484 3.595207,-0.4242 8.479973,-0.75389 13.333984,-0.72657 z m -6.740234,14.88672 c 4.514127,0.0528 9.066854,0.51607 11.265625,1.13672 2.695772,0.76095 3.513419,4.65674 1.113281,6.3125 -3.255137,2.24557 -18.543026,1.98331 -22.144531,0.38281 -2.043598,-0.90817 -3.846337,-5.21482 -1.265625,-6.50586 2.041406,-1.02125 6.517116,-1.37891 11.03125,-1.32617 z m 359.380861,0.26172 h 7.30469 11.95703 c -0.15486,1.9457 -0.13655,5.28645 -1.82032,6.62305 -1.49702,1.18837 -4.37504,0.68347 -6.15039,0.68359 -4.62761,2.9e-4 -16.65728,2.1297 -20.18945,-1.23437 -5.16298,-4.91741 6.55557,-6.06098 8.89844,-6.07227 z m 2.6543,13.19336 c 6.72711,1.02392 5.72224,12.63971 -1.32618,11.71484 -7.5135,-0.98592 -6.4794,-12.90294 1.32618,-11.71484 z m -358.240239,0.73437 c 5.259225,0.2138 8.008974,8.17256 2.201171,10.64063 -6.764455,2.8746 -11.233059,-7.64404 -4.591796,-10.21875 0.836122,-0.32415 1.639302,-0.45236 2.390625,-0.42188 z m 306.435549,3.02735 c 7.05743,-1.35811 9.47303,10.70989 2.64453,12.08203 -8.97885,1.80426 -10.81607,-10.50952 -2.64453,-12.08203 z m -256.67188,0.55078 c 5.21026,1.06933 8.36405,9.93036 2.26953,11.75391 -7.3416,2.19667 -11.42589,-9.93007 -4.60742,-11.69141 0.8073,-0.20854 1.59357,-0.21526 2.33789,-0.0625 z M 84.5,331.97461 c 5.216007,0.5156 7.981324,8.93708 2.203125,11.35547 -7.13711,2.98712 -12.001091,-8.45074 -4.570313,-11.05078 0.827485,-0.28955 1.622046,-0.37835 2.367188,-0.30469 z m 350.89648,0.0195 c 5.38681,0.88266 6.42351,9.89958 0.0781,11.53906 -7.26734,1.87777 -9.6943,-9.48808 -2.64453,-11.375 0.93828,-0.25113 1.79692,-0.29015 2.5664,-0.16406 z m -342.529292,17.8555 c 5.814255,0.75375 7.309742,9.9481 0.544921,11.60937 -7.050082,1.73139 -10.170932,-9.41041 -3.291015,-11.36914 0.99539,-0.28339 1.91548,-0.34791 2.746094,-0.24023 z m 334.310542,0 c 5.11506,0.38921 7.93826,8.62032 2.28516,10.8418 -6.80649,2.67467 -11.3369,-7.94036 -4.59961,-10.48829 0.80621,-0.30483 1.58379,-0.40911 2.31445,-0.35351 z m -170.46679,4.93359 c 0.9169,-0.0999 1.87326,6.6e-4 2.7539,0.32813 7.42303,2.76026 14.33895,9.47494 20.58985,14.20117 1.97815,1.49565 5.40234,3.54008 5.40234,6.38281 0,2.73671 -3.48924,4.527 -5.40234,5.89453 -5.11336,3.65538 -10.30211,7.14993 -15.27735,11.00196 -2.05249,1.58919 -4.52143,4.07937 -7.30273,4.12109 -11.48013,0.17217 -0.0687,-13.31446 2.6543,-15.69336 l -65.0918,0.66406 c -0.4998,-2.6937 -1.56832,-7.94545 1.05469,-9.94531 3.31765,-2.52951 13.4519,-0.68164 17.54297,-0.68164 15.4819,0 31.07771,0.55257 46.49414,-0.66406 -1.76325,-3.78113 -6.13108,-6.02916 -7.46485,-9.96485 -1.0968,-3.23636 1.29617,-5.34479 4.04688,-5.64453 z m 55.12695,13.05274 c 1.38275,-0.1351 2.73301,-0.0621 3.68359,0.68359 3.08689,2.42129 1.04638,15.39185 1.06446,19.14063 0.0918,19.04103 0.0523,38.12234 0,57.12304 l -6.64258,1.99219 -0.72266,-21.91992 -1.26953,-56.45703 c 1.08796,-0.0859 2.50397,-0.4274 3.88672,-0.5625 z m -205.80469,0.33594 c 7.3637,0 8.22318,12.37211 0.66407,12.74609 -8.165861,0.40398 -8.82722,-12.7461 -0.66407,-12.74609 z m 18.59766,0.01 c 7.69639,0.18926 6.96485,12.89529 -0.66406,12.56055 -7.88752,-0.34613 -7.1633,-12.75301 0.66406,-12.56055 z m 268.92383,0.23047 c 5.53313,0.4785 7.60687,9.88527 1.39648,12.20508 -7.34101,2.74211 -11.0624,-9.16518 -3.96484,-11.81641 0.91764,-0.34277 1.7779,-0.45703 2.56836,-0.38867 z m 18.0957,0.0566 c 0.45098,-0.0203 0.88303,0.0105 1.29297,0.0859 5.73912,1.05635 7.30046,10.92219 0.60547,12.77734 -7.56077,2.09501 -11.17869,-10.56991 -3.3086,-12.64258 0.48928,-0.12885 0.95918,-0.20036 1.41016,-0.2207 z m -257.73047,0.01 c 6.50752,-0.23829 8.20258,11.35213 1.26172,12.76171 -7.39988,1.50288 -9.70154,-10.65292 -2.62695,-12.55078 0.47547,-0.12755 0.9314,-0.19505 1.36523,-0.21093 z m 179.87891,0.0391 c 5.38293,0.91329 6.80525,10.26013 0.70898,12.00586 -6.92481,1.98299 -10.11743,-9.88979 -3.24804,-11.83399 0.92019,-0.26045 1.77006,-0.30234 2.53906,-0.17187 z m 36.8164,0.3164 c 0.48174,-0.0945 0.9756,-0.0929 1.45704,0.0274 0.64185,0.16029 1.2625,0.52966 1.80468,1.15625 2.50815,2.89858 1.15821,10.06712 1.15821,13.6582 v 23.91016 c 0,3.29798 0.80179,8.06801 -0.95313,11.0332 -1.36233,2.3018 -4.58014,3.14557 -7.01758,3.58008 V 401.6099 c 0,-4.64839 0.0537,-9.30126 -0.002,-13.94922 -0.0614,-5.16235 -1.82376,-10.884 0.17773,-15.9043 0.59073,-1.48165 1.92984,-2.63843 3.375,-2.92188 z m -10.85742,12.84961 v 31.88086 l -0.40039,13.02539 -6.9043,3.58008 -0.66406,-47.82226 z m -218.52148,4.28321 c 7.49552,-0.79401 8.664,11.12253 1.32617,12.15625 -7.70234,1.08505 -8.95901,-11.34769 -1.32617,-12.15625 z m -17.8711,0.47265 c 0.44087,-0.0106 0.85854,0.03 1.25391,0.11524 5.53522,1.19367 6.52661,11.16281 0.01,12.76367 -7.73986,1.90091 -10.10174,-10.85795 -2.65235,-12.6875 0.48375,-0.11881 0.94781,-0.18075 1.38867,-0.19141 z m 269.60352,1.00391 c 7.7265,0.19062 7.22881,13.00932 -0.66406,12.48242 -7.88817,-0.52653 -7.03645,-12.67239 0.66406,-12.48242 z m -196.60352,5.53125 H 205 l -0.66406,52.47266 -6.90625,-3.50586 -0.40235,-15.0918 z m -24.72656,1.19727 c 1.66854,-0.10095 3.27296,0.12938 4.11719,1.19531 1.70573,2.15367 0.68778,7.61991 0.68359,10.22656 -0.0153,9.54717 -0.13079,19.75078 -1.32812,29.22461 l -6.625,-2.99414 -0.68164,-10.28906 -0.66407,-26.56836 c 1.09778,-0.26136 2.82951,-0.69404 4.49805,-0.79492 z m 130.33399,2.12304 0.66406,35.86719 -0.40039,14.41211 -6.9043,2.85742 -1.33008,-52.47266 z m 39.39453,4.92578 c 1.57645,-0.0923 3.07995,0.0157 3.75976,0.81446 1.80677,2.12291 0.6836,8.22416 0.6836,10.86523 0,9.1357 3.51388,21.93588 -7.97071,23.91211 l -0.66406,-35.20312 c 0.96632,-0.002 2.61495,-0.29633 4.19141,-0.38868 z m -125.28907,1.25586 c 1.50608,0.10081 3.07689,0.43777 4.19922,0.46094 l -1.33007,45.83008 c -13.60585,-1.11131 -7.07643,-21.34698 -7.31446,-31.2168 -0.0921,-3.82026 -2.37187,-10.91359 0.63281,-14.11719 0.86479,-0.92201 2.30649,-1.05784 3.8125,-0.95703 z m -58.5664,1.63867 c 1.54081,-0.0387 3.14751,0.1504 4.31445,0.15039 l -1.32812,23.24805 c -9.02989,-2.04121 -6.99979,-7.02616 -7.33203,-14.61328 -0.0987,-2.25323 -1.40609,-5.72236 0.42773,-7.57031 0.90314,-0.9101 2.37716,-1.17612 3.91797,-1.21485 z m -15.20313,0.35352 c 5.02812,0.96464 5.96216,9.54791 0.25391,11.18945 -6.67953,1.92084 -10.0212,-9.28398 -2.65234,-11.09375 0.87802,-0.21564 1.68013,-0.23351 2.39843,-0.0957 z m 40.77344,9.0957 7.30469,0.66407 -0.66406,26.56836 -7.30664,-1.99219 z m 140.14649,0.66407 h 7.96875 c 0,8.90397 3.99374,26.85206 -7.96875,27.89648 z m -35.20313,0.66406 v 35.86719 l -6.625,-0.41016 -0.68164,-10.2168 -1.32813,-24.57617 z m -35.20312,1.99219 h 8.63476 l -0.66406,24.57617 -0.68359,9.5625 -6.62305,1.06445 z m -26.56836,1.99414 7.30664,0.66406 -0.66407,31.2168 -6.62304,-1.72657 -0.6836,-8.23632 z m 41.18164,11.95507 h 6.64062 v 21.25391 h -6.64062 z m -27.23243,1.32813 h 6.64063 v 19.92578 l -7.30469,-0.66406 z"
       clip-path="url(#clipPath41)" /><text
       xml:space="preserve"
       style="font-size:62.3733px;line-height:0;font-family:'Sequel Sans';-inkscape-font-specification:'Sequel Sans, Normal';text-align:center;letter-spacing:0px;word-spacing:0px;text-anchor:middle;opacity:1;fill:#181c27;fill-opacity:1;stroke:#000000;stroke-width:0.974582"
       x="254.62529"
       y="315.35098"
       id="text9"
       transform="scale(1.0130964,0.9870729)"><tspan
         sodipodi:role="line"
         id="tspan9"
         x="254.62529"
         y="315.35098"
         style="fill:#181c27;fill-opacity:1;stroke-width:0.974582">CovTrim</tspan></text></g></svg>
